<svg width="24" height="25" viewBox="0 0 24 25" fill="none" xmlns="http://www.w3.org/2000/svg">
<mask id="mask0_272_49" style="mask-type:luminance" maskUnits="userSpaceOnUse" x="0" y="0" width="24" height="25">
<path d="M24 0.015625H0V24.0156H24V0.015625Z" fill="white"/>
</mask>
<g mask="url(#mask0_272_49)">
<path d="M3.5 5.01563C3.5 4.4852 3.71071 3.97648 4.08579 3.60141C4.46086 3.22634 4.96957 3.01563 5.5 3.01562H19.5C20.0304 3.01563 20.5391 3.22634 20.9142 3.60141C21.2893 3.97648 21.5 4.4852 21.5 5.01563V19.0156C21.5 19.5461 21.2893 20.0548 20.9142 20.4298C20.5391 20.8049 20.0304 21.0156 19.5 21.0156H5.5C4.96957 21.0156 4.46086 20.8049 4.08579 20.4298C3.71071 20.0548 3.5 19.5461 3.5 19.0156V5.01563Z" stroke="#555555" stroke-linecap="round" stroke-linejoin="round"/>
</g>
</svg>
