<svg width="24" height="25" viewBox="0 0 24 25" fill="none" xmlns="http://www.w3.org/2000/svg">
<mask id="mask0_253_43" style="mask-type:luminance" maskUnits="userSpaceOnUse" x="0" y="0" width="24" height="25">
<path d="M24 0.515625H0V24.5156H24V0.515625Z" fill="white"/>
</mask>
<g mask="url(#mask0_253_43)">
<path d="M10 12.5156C10 13.0461 10.2107 13.5548 10.5858 13.9298C10.9609 14.3049 11.4696 14.5156 12 14.5156C12.5304 14.5156 13.0391 14.3049 13.4142 13.9298C13.7893 13.5548 14 13.0461 14 12.5156C14 11.9852 13.7893 11.4765 13.4142 11.1014C13.0391 10.7263 12.5304 10.5156 12 10.5156C11.4696 10.5156 10.9609 10.7263 10.5858 11.1014C10.2107 11.4765 10 11.9852 10 12.5156Z" stroke="#555555" stroke-linecap="round" stroke-linejoin="round"/>
<path d="M21 12.5156C18.6 16.5156 15.6 18.5156 12 18.5156C8.4 18.5156 5.4 16.5156 3 12.5156C5.4 8.51562 8.4 6.51562 12 6.51562C15.6 6.51562 18.6 8.51562 21 12.5156Z" stroke="#555555" stroke-linecap="round" stroke-linejoin="round"/>
</g>
</svg>
